<?xml version="1.0" encoding="utf-8"?>
<!-- Generator: Adobe Illustrator 16.0.0, SVG Export Plug-In . SVG Version: 6.00 Build 0)  -->
<!DOCTYPE svg PUBLIC "-//W3C//DTD SVG 1.1//EN" "http://www.w3.org/Graphics/SVG/1.1/DTD/svg11.dtd">
<svg version="1.1" id="Layer_1" xmlns="http://www.w3.org/2000/svg" xmlns:xlink="http://www.w3.org/1999/xlink" x="0px" y="0px" viewBox="0 0 504 252" style="enable-background:new 0 0 504 252;" xml:space="preserve">
<g>
	<path style="fill:#58595B;" d="M13.8510742,93.2670898c6.5532227,3.355957,16.6230469,6.7128906,27.0131836,6.7128906
		c11.1889648,0,17.1020508-4.6347656,17.1020508-11.6679688c0-6.7138672-5.1147461-10.550293-18.0620117-15.1860352
		c-17.9013672-6.2333984-29.5708008-16.1435547-29.5708008-31.8081055c0-18.3813477,15.3457031-32.4482422,40.7612305-32.4482422
		c12.1469727,0,21.0986328,2.5576172,27.4921875,5.4350586L73.1513672,33.965332
		c-4.3154297-2.078125-11.9873047-5.1157227-22.5361328-5.1157227c-10.550293,0-15.6655273,4.7958984-15.6655273,10.3896484
		c0,6.8740234,6.0742188,9.9111328,19.9804688,15.1850586c19.0205078,7.0336914,27.9716797,16.9438477,27.9716797,32.128418
		c0,18.0625-13.9057617,33.4077148-43.4765625,33.4077148c-12.3076172,0-24.4555664-3.1977539-30.5297852-6.5532227
		L13.8510742,93.2670898z"/>
	<path style="fill:#58595B;" d="M155.5786133,116.2353516c-3.1328125,1.5664063-10.1821289,3.2460938-19.3579102,3.2460938
		c-26.0703125,0-39.4960938-16.2250977-39.4960938-37.7084961c0-25.7348633,18.3496094-40.0566406,41.175293-40.0566406
		c8.8398438,0,15.5522461,1.7895508,18.5732422,3.3564453l-3.4677734,13.5385742
		c-3.46875-1.4541016-8.2792969-2.7978516-14.3217773-2.7978516c-13.5400391,0-24.0571289,8.1689453-24.0571289,24.9526367
		c0,15.1054688,8.9516602,24.6157227,24.1689453,24.6157227c5.1469727,0,10.8530273-1.1176758,14.2099609-2.4614258
		L155.5786133,116.2353516z"/>
	<path style="fill:#58595B;" d="M235.2397461,79.8710938c0,24.7280273-14.9941406,39.7211914-37.0351563,39.7211914
		c-22.3793945,0-35.4707031-16.8950195-35.4707031-38.378418c0-22.6025391,14.4345703-39.4975586,36.7011719-39.4975586
		C222.5961914,41.7163086,235.2397461,59.0595703,235.2397461,79.8710938z M180.7490234,80.878418
		c0,14.7685547,6.9375,25.175293,18.3491211,25.175293c11.5263672,0,18.1279297-10.9658203,18.1279297-25.6235352
		c0-13.5380859-6.4912109-25.1757813-18.2392578-25.1757813C187.4619141,55.2543945,180.7490234,66.2202148,180.7490234,80.878418z"
		/>
	<path style="fill:#58595B;" d="M260.6347656,57.2685547h-20.2524414V42.9467773H298.34375v14.3217773h-20.5898438v61.0927734
		h-17.1191406V57.2685547z"/>
	<path style="fill:#58595B;" d="M327.203125,57.2685547h-20.2519531V42.9467773h57.9589844v14.3217773h-20.5878906v61.0927734
		H327.203125V57.2685547z"/>
	<path style="fill:#58595B;" d="M395.0039063,118.3613281V87.4794922l-23.8339844-44.5327148h19.4667969l7.7226563,18.1259766
		c2.3496094,5.4829102,3.9140625,9.5117188,5.8183594,14.4345703h0.2226563
		c1.6796875-4.6992188,3.46875-9.0629883,5.7070313-14.4345703l7.609375-18.1259766h19.1328125l-24.8398438,43.9741211v31.4404297
		H395.0039063z"/>
</g>
<g>
	<path style="fill:#9BBFAB;" d="M94.4760742,135.7158203c8.9521484-1.4375,20.6210938-2.2363281,32.9282227-2.2363281
		c20.4599609,0,33.7265625,3.6757813,44.1166992,11.5078125c11.1879883,8.3115234,18.222168,21.5800781,18.222168,40.6015625
		c0,20.6191406-7.5131836,34.8457031-17.9023438,43.6376953c-11.3496094,9.4287109-28.6123047,13.9042969-49.7114258,13.9042969
		c-12.6279297,0-21.5786133-0.796875-27.6533203-1.5976563V135.7158203z M118.9316406,223.6308594
		c2.0791016,0.4794922,5.4355469,0.4794922,8.4726563,0.4794922c22.0576172,0.1601563,36.4448242-11.9882813,36.4448242-37.7216797
		c0.1586914-22.3798828-12.9482422-34.2080078-33.8876953-34.2080078c-5.434082,0-8.9506836,0.4804688-11.0297852,0.9580078
		V223.6308594z"/>
	<path style="fill:#9BBFAB;" d="M224.1186523,222.65625l-5.3691406,19.3564453h-17.6796875l23.0488281-75.4150391h22.3798828
		l23.3842773,75.4150391h-18.3500977l-5.8183594-19.3564453H224.1186523z M243.253418,209.8974609l-4.6992188-15.9990234
		c-1.34375-4.4755859-2.6855469-10.0693359-3.8056641-14.5449219h-0.2226563
		c-1.1201172,4.4755859-2.2382813,10.1806641-3.46875,14.5449219l-4.4755859,15.9990234H243.253418z"/>
	<path style="fill:#9BBFAB;" d="M288.34375,242.0126953l-17.9042969-75.4150391h18.2382813l5.7070313,31.1064453
		c1.6777344,8.9511719,3.2441406,18.6845703,4.4726563,26.2949219h0.2265625
		c1.2304688-8.1689453,3.0195313-17.2324219,4.921875-26.5205078l6.3789063-30.8808594h18.1269531L334.5527344,198.375
		c1.6777344,8.8398438,2.9082031,16.8945313,4.0273438,25.2861328h0.2226563
		c1.1210938-8.3916016,2.7988281-17.2294922,4.3652344-26.1826172l6.1542969-30.8808594h17.34375l-19.46875,75.4150391H328.734375
		l-6.3769531-32.4472656c-1.4550781-7.6103516-2.6875-14.6591797-3.5800781-23.2744141h-0.2246094
		c-1.34375,8.5029297-2.5742188,15.6640625-4.3652344,23.2744141l-7.1621094,32.4472656H288.34375z"/>
	<path style="fill:#9BBFAB;" d="M440.3945313,238.5439453c-5.2617188,1.7890625-15.2167969,4.2519531-25.1777344,4.2519531
		c-13.7617188,0-23.7207031-3.4677734-30.6582031-10.1826172c-6.9375-6.4902344-10.7402344-16.3369141-10.6269531-27.4121094
		c0.109375-25.0654297,18.3457031-39.3886719,43.078125-39.3886719c9.734375,0,17.2304688,1.9042969,20.9238281,3.6933594
		l-3.5839844,13.6513672c-4.1386719-1.7900391-9.2871094-3.2451172-17.5644531-3.2451172
		c-14.2109375,0-24.9511719,8.0556641-24.9511719,24.3925781c0,15.5527344,9.7324219,24.7285156,23.71875,24.7285156
		c3.9160156,0,7.0488281-0.4462891,8.390625-1.1201172v-15.7753906h-11.6347656v-13.3134766h28.0859375V238.5439453z"/>
</g>
<g>
	<path style="fill:#BCBEC0;" d="M215.612793,125.3535156c2.4794922-0.4223633,5.9628906-0.7387695,10.8710938-0.7387695
		c4.9609375,0,8.4960938,0.949707,10.8710938,2.8481445c2.2695313,1.7958984,3.7988281,4.7509766,3.7988281,8.2333984
		s-1.1601563,6.4384766-3.2714844,8.4433594c-2.7441406,2.5859375-6.8066406,3.7460938-11.5566406,3.7460938
		c-1.0546875,0-2.0058594-0.0517578-2.7441406-0.1582031v12.7177734h-7.96875V125.3535156z M223.581543,141.5009766
		c0.6855469,0.1582031,1.5302734,0.2119141,2.6914063,0.2119141c4.2734375,0,6.9140625-2.1640625,6.9140625-5.8046875
		c0-3.2714844-2.2695313-5.2255859-6.28125-5.2255859c-1.6347656,0-2.7431641,0.1582031-3.3242188,0.3173828V141.5009766z"/>
	<path style="fill:#BCBEC0;" d="M280.15625,142.2919922c0,11.6621094-7.0722656,18.734375-17.4667969,18.734375
		c-10.5571289,0-16.730957-7.9677734-16.730957-18.0996094c0-10.6601563,6.8085938-18.6293945,17.3110352-18.6293945
		C274.1914063,124.2973633,280.15625,132.4765625,280.15625,142.2919922z M254.4550781,142.7685547
		c0,6.9648438,3.2714844,11.8720703,8.65625,11.8720703c5.4335938,0,8.546875-5.1708984,8.546875-12.0839844
		c0-6.3857422-3.0585938-11.8740234-8.6015625-11.8740234C257.6230469,130.6826172,254.4550781,135.8554688,254.4550781,142.7685547
		z"/>
	<path style="fill:#BCBEC0;" d="M286.7539063,125.3535156c2.5859375-0.4223633,6.4394531-0.7387695,10.7128906-0.7387695
		c5.2773438,0,8.9726563,0.7915039,11.5058594,2.7954102c2.109375,1.6914063,3.2714844,4.1699219,3.2714844,7.4423828
		c0,4.5371094-3.2226563,7.6523438-6.28125,8.7607422v0.1572266c2.4824219,1.0029297,3.8554688,3.3769531,4.75,6.6494141
		c1.109375,4.0107422,2.2167969,8.6552734,2.9023438,10.0253906h-8.234375
		c-0.578125-1.0029297-1.4238281-3.9042969-2.4765625-8.2851563c-0.9511719-4.4326172-2.4824219-5.6455078-5.7539063-5.6982422
		h-2.4277344v13.9833984h-7.96875V125.3535156z M294.7226563,140.65625h3.1679688
		c4.0097656,0,6.3847656-2.0058594,6.3847656-5.1171875c0-3.2724609-2.2167969-4.9082031-5.9121094-4.9619141
		c-1.9492188,0-3.0585938,0.1582031-3.640625,0.2636719V140.65625z"/>
	<path style="fill:#BCBEC0;" d="M326.2285156,131.6337891h-9.5507813v-6.7548828h27.3359375v6.7548828h-9.7109375v28.8115234
		h-8.0742188V131.6337891z"/>
	<path style="fill:#BCBEC0;" d="M349.6074219,124.8789063h21.7421875v6.5947266h-13.6660156v8.1279297h12.7695313v6.5429688
		h-12.7695313v14.3007813h-8.0761719V124.8789063z"/>
	<path style="fill:#BCBEC0;" d="M411.2988281,142.2919922c0,11.6621094-7.0683594,18.734375-17.4648438,18.734375
		c-10.5546875,0-16.7285156-7.9677734-16.7285156-18.0996094c0-10.6601563,6.8066406-18.6293945,17.3085938-18.6293945
		C405.3378906,124.2973633,411.2988281,132.4765625,411.2988281,142.2919922z M385.6015625,142.7685547
		c0,6.9648438,3.2714844,11.8720703,8.6542969,11.8720703c5.4355469,0,8.5488281-5.1708984,8.5488281-12.0839844
		c0-6.3857422-3.0605469-11.8740234-8.6035156-11.8740234C388.7675781,130.6826172,385.6015625,135.8554688,385.6015625,142.7685547
		z"/>
	<path style="fill:#BCBEC0;" d="M417.9003906,124.8789063h8.0742188v28.8125h14.1445313v6.7539063h-22.21875V124.8789063z"/>
	<path style="fill:#BCBEC0;" d="M454.2597656,124.8789063v35.5664063h-8.0742188v-35.5664063H454.2597656z"/>
	<path style="fill:#BCBEC0;" d="M495.1054688,142.2919922c0,11.6621094-7.0683594,18.734375-17.4648438,18.734375
		c-10.5546875,0-16.7304688-7.9677734-16.7304688-18.0996094c0-10.6601563,6.8066406-18.6293945,17.3085938-18.6293945
		C489.1445313,124.2973633,495.1054688,132.4765625,495.1054688,142.2919922z M469.4082031,142.7685547
		c0,6.9648438,3.2714844,11.8720703,8.6542969,11.8720703c5.4355469,0,8.5488281-5.1708984,8.5488281-12.0839844
		c0-6.3857422-3.0625-11.8740234-8.6035156-11.8740234C472.5742188,130.6826172,469.4082031,135.8554688,469.4082031,142.7685547z"
		/>
</g>
</svg>
