<?xml version="1.0" encoding="utf-8"?>
<!-- Generator: Adobe Illustrator 16.0.0, SVG Export Plug-In . SVG Version: 6.00 Build 0)  -->
<!DOCTYPE svg PUBLIC "-//W3C//DTD SVG 1.1//EN" "http://www.w3.org/Graphics/SVG/1.1/DTD/svg11.dtd">
<svg version="1.1" id="Layer_1" xmlns="http://www.w3.org/2000/svg" xmlns:xlink="http://www.w3.org/1999/xlink" x="0px" y="0px" viewBox="0 0 504 450" style="enable-background:new 0 0 504 450;" xml:space="preserve">
<line style="fill:none;stroke:#41413E;stroke-width:20;stroke-linecap:round;stroke-linejoin:round;stroke-miterlimit:10;" x1="427.0126953" y1="143.6811523" x2="486.5625" y2="187"/>
<polyline style="fill:none;stroke:#41413E;stroke-width:20;stroke-linecap:round;stroke-linejoin:round;stroke-miterlimit:10;" points="
	182.203125,67.4345703 252.1987305,16.519043 322.1943359,67.4345703 "/>
<line style="fill:none;stroke:#41413E;stroke-width:20;stroke-linecap:round;stroke-linejoin:round;stroke-miterlimit:10;" x1="17.8349609" y1="187" x2="78.3491211" y2="142.9804688"/>
<path style="fill:none;stroke:#41413E;stroke-width:20;stroke-linejoin:round;stroke-miterlimit:10;" d="M486.5625,187.4057617
	v233.3774414c0,6.9550781-5.3730469,12.59375-12,12.59375H29.8349609c-6.6274414,0-12-5.6386719-12-12.59375V187.4057617"/>
<polyline style="fill:none;stroke:#41413E;stroke-width:20;stroke-linecap:round;stroke-linejoin:round;stroke-miterlimit:10;" points="
	18.1362305,187.4052734 135.3164063,279.59375 252.5004883,371.7822266 369.6835938,279.59375 486.8632813,187.4052734 "/>
<line style="fill:none;stroke:#41413E;stroke-width:20;stroke-linecap:round;stroke-linejoin:round;stroke-miterlimit:10;" x1="168.1049805" y1="305.3886719" x2="19.9624023" y2="427.9394531"/>
<path style="fill:none;stroke:#41413E;stroke-width:20;stroke-linecap:round;stroke-linejoin:round;stroke-miterlimit:10;" d="
	M427.0146484,232.1953125v-83.8886719v-68.144043c0-7.0292969-5.3730469-12.7275391-12-12.7275391h-92.8193359H182.2026367
	H90.3486328c-6.6274414,0-12,5.6982422-12,12.7275391v67.3984375v84.6342773"/>
<ellipse style="fill:none;stroke:#41413E;stroke-width:20;stroke-linecap:round;stroke-linejoin:round;stroke-miterlimit:10;" cx="145.1306152" cy="132.5170898" rx="32.6086426" ry="32.4731445"/>
<line style="fill:none;stroke:#41413E;stroke-width:20;stroke-linecap:round;stroke-linejoin:round;stroke-miterlimit:10;" x1="208.1738281" y1="115.2612305" x2="393.6816406" y2="115.2612305"/>
<line style="fill:none;stroke:#41413E;stroke-width:20;stroke-linecap:round;stroke-linejoin:round;stroke-miterlimit:10;" x1="208.1738281" y1="149.8154297" x2="393.6816406" y2="149.8154297"/>
<line style="fill:none;stroke:#41413E;stroke-width:20;stroke-linecap:round;stroke-linejoin:round;stroke-miterlimit:10;" x1="112.5219727" y1="209.4643555" x2="393.6816406" y2="209.4643555"/>
<line style="fill:none;stroke:#41413E;stroke-width:20;stroke-linecap:round;stroke-linejoin:round;stroke-miterlimit:10;" x1="133.5361328" y1="246.8701172" x2="373.3916016" y2="246.8701172"/>
<line style="fill:none;stroke:#41413E;stroke-width:20;stroke-linecap:round;stroke-linejoin:round;stroke-miterlimit:10;" x1="177.7392578" y1="284.25" x2="322.1943359" y2="284.25"/>
<line style="fill:none;stroke:#41413E;stroke-width:20;stroke-linecap:round;stroke-linejoin:round;stroke-miterlimit:10;" x1="227.8408203" y1="320.3339844" x2="278.5654297" y2="320.3339844"/>
<line style="fill:none;stroke:#41413E;stroke-width:20;stroke-linecap:round;stroke-linejoin:round;stroke-miterlimit:10;" x1="334.2607422" y1="310.3916016" x2="478.4638672" y2="424.6816406"/>
</svg>
