<?xml version="1.0" encoding="utf-8"?>
<!-- Generator: Adobe Illustrator 16.0.0, SVG Export Plug-In . SVG Version: 6.00 Build 0)  -->
<!DOCTYPE svg PUBLIC "-//W3C//DTD SVG 1.1//EN" "http://www.w3.org/Graphics/SVG/1.1/DTD/svg11.dtd">
<svg version="1.1" id="Layer_1" opacity="0.4" xmlns="http://www.w3.org/2000/svg" xmlns:xlink="http://www.w3.org/1999/xlink" x="0px" y="0px" viewBox="0 0 504 450" style="enable-background:new 0 0 504 450;" xml:space="preserve">
<path style="fill:none;stroke:#41413E;stroke-width:20;stroke-miterlimit:10;" d="M394.7714844,421.9169922
	c0,6.6269531-5.3730469,12-12,12H121.2285156c-6.6274414,0-12-5.3730469-12-12V28.519043c0-6.6274414,5.3725586-12,12-12
	h261.5429688c6.6269531,0,12,5.3725586,12,12V421.9169922z"/>
<path style="fill:none;stroke:#41413E;stroke-width:20;stroke-linejoin:round;stroke-miterlimit:10;" d="M357,346.8759766
	c0,6.5517578-3.1171875,11.8632813-6.9638672,11.8632813H153.0942383c-3.8461914,0-6.9638672-5.3115234-6.9638672-11.8632813
	V65.9770508c0-6.5517578,3.1176758-11.8632813,6.9638672-11.8632813h196.9418945
	C353.8828125,54.1137695,357,59.425293,357,65.9770508V346.8759766z"/>
<circle style="fill:#41413E;" cx="251.5646973" cy="398.2324219" r="20.6520996"/>
<rect x="179.1884766" y="87.7246094" style="fill:none;stroke:#41413E;stroke-width:20;stroke-miterlimit:10;" width="146.3769531" height="56.5219727"/>
<line style="fill:none;stroke:#41413E;stroke-width:20;stroke-miterlimit:10;" x1="169.043457" y1="181.0288086" x2="334.9853516" y2="181.0288086"/>
<line style="fill:none;stroke:#41413E;stroke-width:20;stroke-miterlimit:10;" x1="168.59375" y1="215.4638672" x2="334.5351563" y2="215.4638672"/>
<line style="fill:none;stroke:#41413E;stroke-width:20;stroke-miterlimit:10;" x1="168.59375" y1="249.5507813" x2="334.5351563" y2="249.5507813"/>
<line style="fill:none;stroke:#41413E;stroke-width:20;stroke-miterlimit:10;" x1="169.7539063" y1="284.9570313" x2="335.6953125" y2="284.9570313"/>
<line style="fill:none;stroke:#41413E;stroke-width:20;stroke-miterlimit:10;" x1="169.3041992" y1="319.3925781" x2="335.2460938" y2="319.3925781"/>
</svg>
