<?xml version="1.0" encoding="utf-8"?>
<!-- Generator: Adobe Illustrator 16.0.0, SVG Export Plug-In . SVG Version: 6.00 Build 0)  -->
<!DOCTYPE svg PUBLIC "-//W3C//DTD SVG 1.1//EN" "http://www.w3.org/Graphics/SVG/1.1/DTD/svg11.dtd">
<svg version="1.1" id="Layer_1" xmlns="http://www.w3.org/2000/svg" xmlns:xlink="http://www.w3.org/1999/xlink" x="0px" y="0px" viewBox="0 0 504 450" style="enable-background:new 0 0 504 450;" xml:space="preserve">
<path style="fill:none;stroke:#66686A;stroke-width:20;stroke-miterlimit:10;" d="M487.1953125,376.078125
	c0,19.0410156-10.5195313,34.4726563-23.4931641,34.4726563H41.1494141c-12.9741211,0-23.4916992-15.4316406-23.4916992-34.4726563
	V75.9921875c0-19.0390625,10.5175781-34.4736328,23.4916992-34.4736328h422.5527344
	c12.9736328,0,23.4931641,15.4345703,23.4931641,34.4736328V376.078125z"/>
<g>
	
		<circle style="fill:none;stroke:#66686A;stroke-width:20;stroke-miterlimit:10;" cx="121.5217285" cy="127.0341797" r="48.5505371"/>
	<path style="fill:none;stroke:#66686A;stroke-width:20;stroke-miterlimit:10;" d="M191.4492188,204.5703125v64.1113281h-27.3769531
		V375.203125H78.9711914V268.6816406H51.5942383v-64.1113281c0-16.0087891,31.3076172-28.9858398,69.9277344-28.9858398
		C160.1416016,175.5844727,191.4492188,188.5615234,191.4492188,204.5703125"/>
	
		<line style="fill:none;stroke:#66686A;stroke-width:10;stroke-miterlimit:10;" x1="121.5214844" y1="375.203125" x2="121.5214844" y2="309.9853516"/>
	
		<line style="fill:none;stroke:#66686A;stroke-width:10;stroke-miterlimit:10;" x1="83.8696289" y1="267.9560547" x2="83.8696289" y2="219"/>
	
		<line style="fill:none;stroke:#66686A;stroke-width:10;stroke-miterlimit:10;" x1="159.6523438" y1="267.9560547" x2="159.6523438" y2="219"/>
</g>
<line style="fill:none;stroke:#66686A;stroke-width:20;stroke-linecap:round;stroke-miterlimit:10;" x1="229.1884766" y1="116.1738281" x2="438.6083984" y2="116.1738281"/>
<line style="fill:none;stroke:#66686A;stroke-width:20;stroke-linecap:round;stroke-miterlimit:10;" x1="229.1889648" y1="155.0722656" x2="438.609375" y2="155.0722656"/>
<line style="fill:none;stroke:#66686A;stroke-width:20;stroke-linecap:round;stroke-miterlimit:10;" x1="229.1875" y1="193.4204102" x2="438.6074219" y2="193.4204102"/>
<line style="fill:none;stroke:#66686A;stroke-width:20;stroke-linecap:round;stroke-miterlimit:10;" x1="229.1879883" y1="232.3183594" x2="438.6083984" y2="232.3183594"/>
<line style="fill:none;stroke:#66686A;stroke-width:20;stroke-linecap:round;stroke-miterlimit:10;" x1="229.1884766" y1="271.9560547" x2="438.6083984" y2="271.9560547"/>
<line style="fill:none;stroke:#66686A;stroke-width:20;stroke-linecap:round;stroke-miterlimit:10;" x1="229.1889648" y1="310.8544922" x2="438.609375" y2="310.8544922"/>
<line style="fill:none;stroke:#66686A;stroke-width:20;stroke-linecap:round;stroke-miterlimit:10;" x1="229.1870117" y1="349.7392578" x2="379.9130859" y2="349.7392578"/>
</svg>
